<?xml version="1.0" encoding="utf-8"?>
<!-- Generator: Adobe Illustrator 24.2.1, SVG Export Plug-In . SVG Version: 6.00 Build 0)  -->
<svg version="1.1" id="Layer_1" xmlns="http://www.w3.org/2000/svg" xmlns:xlink="http://www.w3.org/1999/xlink" x="0px" y="0px"
	 viewBox="0 0 1200 1200" style="enable-background:new 0 0 1200 1200;" xml:space="preserve">
<style type="text/css">
	.st0{fill:#3E4B59;}
	.st1{fill:#F0EEEA;}
	.st2{fill:#303847;}
	.st3{fill:#75483E;}
	.st4{fill:#CECFD3;}
	.st5{fill:#4F5767;}
	.st6{fill:#963243;}
	.st7{fill:#B83647;}
	.st8{fill:#FEE188;}
	.st9{fill:#F8974F;}
	.st10{fill:#F46F33;}
	.st11{fill:#FAAB71;}
	.st12{fill:#E14B5E;}
	.st13{fill:#FFFFFF;}
	.st14{fill:#FEFEFE;}
	.st15{fill:#F6C425;}
	.st16{fill:#F5C326;}
	.st17{fill:none;}
	.st18{fill:#633D37;}
	.st19{fill:#F37034;}
	.st20{fill:none;stroke:#000000;stroke-miterlimit:10;}
</style>
<g id="illustration">
	<path class="st0" d="M625.4,893.9L625.4,893.9L625.4,893.9z"/>
	<path class="st0" d="M626.4,893.6c-0.1,0-0.1,0-0.2,0C626.3,893.6,626.3,893.6,626.4,893.6z"/>
	<path class="st0" d="M723.1,669c-0.6-33.1-4.4-99.4-4.4-99.4l-208.1,0.9c0,0-4.3,74.5-3.9,95.5c0.3,18.2,12.5,178.8,15.6,220.7
		c6,0.2,12,1,17.8,2.4c19.9,4.8,39.7,4.2,60.2,4.5c0.7,0,1.4,0.1,1.9,0.6c0.2,0.2,0.3,0.5,0.4,0.7c1.1-26.1,4.1-101.2,3.5-147.9
		c-0.7-57.2-2.4-100.4-2.4-100.4s-25.3-4-25-9.8c0,0,17.5,1.8,32.4,0s33.7-4.8,33.7-4.8s-4,11.2-8.4,14.6s3.1,58.4,3.9,83.4
		s6.8,141.4,14.7,155c2.1,3.6,4.2,6,6.3,7.8c-2.8,0.2-5.7,0.3-8.5,0.4c11.5-0.4,22.8-1.4,34.2-4.1c6.6-1.6,13.6-2.4,20.5-2.4
		C711,846.6,723.6,697.6,723.1,669z"/>
	<path class="st0" d="M626,893.7c-0.1,0-0.1,0-0.2,0C625.8,893.7,625.9,893.7,626,893.7z"/>
	<path class="st0" d="M639.6,893.5c-1.6,0-3.2,0-4.9,0C636.4,893.5,638,893.5,639.6,893.5z"/>
	<path class="st0" d="M652.8,893.2c-1.4,0-2.8,0.1-4.1,0.1C650,893.3,651.4,893.3,652.8,893.2z"/>
	<path class="st0" d="M633.9,893.5c-1,0-2,0-3,0C632,893.5,633,893.5,633.9,893.5z"/>
	<path class="st0" d="M648.1,893.3c-1.2,0-2.5,0-3.7,0.1C645.7,893.4,646.9,893.4,648.1,893.3z"/>
	<path class="st0" d="M643.8,893.4c-1.2,0-2.5,0-3.7,0C641.3,893.5,642.5,893.4,643.8,893.4z"/>
	<path class="st1" d="M662.9,329.6l-14.1,5.4c0,0-12.3-7.5-16.2-12.2s-8.4-11.5-8.4-11.5l9.2-20l15,0.8L662.9,329.6z"/>
	<path class="st2" d="M914.9,349.5c-4.3,1.7-8.7,3.5-13.5,3.6c-6.2,0.5-10.9-2.5-15.3-6.3c-4.2-5.3-6.8-11-4.6-17.8l0,0
		c2-6.7,9.1-16.4,13.7-21.4c-14.5-1.4-37.6-3.4-43.8-3.3c-9.2,0.1-28.8,4.4-38.7,5.6s-62.7-1-83.6-5c-20.8-4-32.6-12.1-49.9-14.9
		c-5.5-0.9-13.8-0.4-22.7,0.6c10.6,8.4,19.8,26.6,19.8,26.6L664,331.9l19.6,6.9l-4,234.5l98.6-5.3l-44.9-206.4c0,0,23.6,4.6,36,6.1
		c12.3,1.5,50.7,2,87.9,3s58.7-20.9,58.7-20.9"/>
	<path class="st2" d="M520.7,624.4l-1.3-4.8c11.5-3.2,41.2-14.8,41.2-29.6h5C565.5,611.6,522.5,623.9,520.7,624.4z"/>
	<path class="st2" d="M713.3,624.4l1.3-4.8c-11.5-3.2-41.2-14.8-41.2-29.6h-5C668.5,611.6,711.5,623.9,713.3,624.4z"/>
	<path class="st3" d="M600.4,919.7l-138.1-2.3l0,0c3.1-10.5,12-17.4,20.9-21.8c17.5-9.2,38.3-11.1,56.9-6.5
		c19.9,4.8,39.7,4.2,60.2,4.5c0.7,0,1.4,0.1,1.9,0.6c0.6,0.6,0.6,1.6,0.6,2.4L600.4,919.7"/>
	<path class="st4" d="M708.9,304c-10.4-14-80.5-7.9-89.9-7.1c-9-0.9-76.5-6.9-86.9,7.1C521,319,501,559,501,559s7.7-7.3,28.8,5.2
		s43.6,31.3,90.7,28.6c47.1,2.6,69.6-16.1,90.7-28.6c21.1-12.5,28.8-5.2,28.8-5.2S720,319,708.9,304z"/>
	<path class="st5" d="M664,331.9l12.3-14.7c0,0-9.2-18.2-19.8-26.6c-3.4,0.4-6.9,0.9-10.3,1.4l2.2,0.1l14.5,37.5l-14.1,5.4
		c0,0-0.2-0.1-0.5-0.3c0.1,0.3,0.2,0.6,0.3,0.8c3.6,10.5,14.6,124.4,19.2,176.8c0.5,3.7,0.8,6.6,0.7,8.6c0.7,8.3,1.2,14.2,1.3,16.5
		c0.8,15.4-4,36.6-4,36.6l13.8-0.7l4-234.5L664,331.9z"/>
	<path class="st1" d="M662.9,329.6l-14.1,5.4c0,0-12.3-7.5-16.2-12.2s-8.4-11.5-8.4-11.5l9.2-20l15,0.8L662.9,329.6z"/>
	<path class="st2" d="M914.9,349.5c-4.3,1.7-8.7,3.5-13.5,3.6c-6.2,0.5-10.9-2.5-15.3-6.3c-4.2-5.3-6.8-11-4.6-17.8l0,0
		c2-6.7,9.1-16.4,13.7-21.4c-14.5-1.4-37.6-3.4-43.8-3.3c-9.2,0.1-28.8,4.4-38.7,5.6s-62.7-1-83.6-5c-20.8-4-32.6-12.1-49.9-14.9
		c-5.5-0.9-13.8-0.4-22.7,0.6c10.6,8.4,19.8,26.6,19.8,26.6L664,331.9l19.6,6.9l-4,234.5l98.6-5.3l-44.9-206.4c0,0,23.6,4.6,36,6.1
		c12.3,1.5,50.7,2,87.9,3s58.7-20.9,58.7-20.9"/>
	<path class="st5" d="M575.7,331.9l-12.3-14.7c0,0,9.2-18.2,19.8-26.6c3.4,0.4,6.9,0.9,10.3,1.4l-2.2,0.1l-14.5,37.5l14.1,5.4
		c0,0,0.2-0.1,0.5-0.3c-0.1,0.3-0.2,0.6-0.3,0.8c-3.6,10.5-14.6,124.4-19.2,176.8c-0.5,3.7-0.8,6.6-0.7,8.6
		c-0.7,8.3-1.2,14.2-1.3,16.5c-0.8,15.4,4,36.6,4,36.6l-13.8-0.7l-4-234.5L575.7,331.9z"/>
	<path class="st1" d="M591.3,292.1l15-0.8l9.2,20c0,0-4.5,6.8-8.4,11.5S590.9,335,590.9,335l-14.1-5.4L591.3,292.1z"/>
	<path class="st2" d="M324.8,349.5c4.3,1.7,8.7,3.5,13.5,3.6c6.2,0.5,10.9-2.5,15.3-6.3c4.2-5.3,6.8-11,4.6-17.8l0,0
		c-2-6.7-9.1-16.4-13.7-21.4c14.5-1.4,37.6-3.4,43.8-3.3c9.2,0.1,28.8,4.4,38.7,5.6c9.9,1.2,62.7-1,83.6-5
		c20.8-4,32.6-12.1,49.9-14.9c5.5-0.9,13.8-0.4,22.7,0.6c-10.6,8.4-19.8,26.6-19.8,26.6l12.3,14.7l-19.6,6.9l4,234.5l-98.6-5.3
		l44.9-206.4c0,0-23.6,4.6-36,6.1c-12.3,1.5-50.7,2-87.9,3s-58.7-20.9-58.7-20.9"/>
	<polygon class="st6" points="601.5,291.2 633.4,291.2 624.3,311.2 610.7,311.2 	"/>
	<path class="st7" d="M636,363c-2.8-11.9-11.7-51.8-11.7-51.8H620h-1h-8.3c0,0-10.9,39.9-13.7,51.8s1.2,29.4,3.4,44.2
		c1.9,12.6,15.5,36,19.5,42.7v1.9c0,0,0.2-0.3,0.6-0.9c0.4,0.6,0.6,0.9,0.6,0.9V450c4-6.7,9.6-30.1,11.5-42.8
		C634.8,392.4,638.8,374.9,636,363z"/>
	<path class="st8" d="M555.9,215.5l-19.1-5.1c0,0-1.3-26.4,6.7-37.5c0,0-8.4,6.6-4.3-11.1c4.1-17.6,8.8-28.2,8.8-28.2
		s17.5-8.2,34.5-8.2c0,0-5.1-11.8,8.6-16.5c13.8-4.7,36.4-15.3,53.8-4.7s30,9.4,40.1,23.6c10.1,14.1,2.1,20.8,25.2,29.8
		c23.2,9,30,8.2,30,8.2s-41,16.9-47.9,17.7c0,0,6.2,21.4,6.2,23.9s-2.3,4.4-2.3,4.4l-21.9,2.3L555.9,215.5z"/>
	<path class="st9" d="M694.7,217.3c-1.2-6.1-9.3-5.3-9.3-5.3s-1.4-9.1-2.9-14.4s-4.2-11.5-14.2-23.9c-9.5-11.8-46.5-10.1-50.1-9.9
		c-3.5-0.2-39.6-1.9-49.1,9.9c-10,12.4-12.7,18.6-14.2,23.9S552,212,552,212s-8-0.8-9.3,5.3c-1.2,6.1-1.8,11,0,16.9
		s3.4,11.5,8.1,10.6c4.6-0.9,1.6-0.4,2.5,3.6s9.9,44.7,13.7,48.1s11.4,8.8,18.5,10c7.1,1.1,4.6,4.4,9,4.9s6.8,1,9.7,4.6
		c2.8,3.5,9.2,3.2,14.2,3.8v0.1c0.1,0,0.2,0,0.2,0c0.1,0,0.2,0,0.2,0v-0.1c5-0.6,11.4-0.3,14.2-3.8c2.9-3.6,5.3-4.1,9.7-4.6
		s1.9-3.8,9-4.9s14.7-6.6,18.5-10s12.9-44,13.7-48.1s-2.1-4.5,2.5-3.6s6.3-4.7,8.1-10.6S695.9,223.4,694.7,217.3z"/>
	<path class="st10" d="M684.5,244.9c-2.9-0.4-7.3-2.5-8.4-11.1c0,0-4.8,11.1-5.7,23.2s1,14.1,0.5,20.6s-0.9,18.3-7.7,19.4
		s-22.1,1.6-27.5,5.9s0,8.3-8.4,8.3s-8.3,0-8.3,0s0,0-8.3,0s-3-4-8.4-8.3s-20.7-4.9-27.5-5.9c-6.8-1.1-7.2-13-7.7-19.4
		c-0.5-6.5,1.4-8.5,0.5-20.6s-5.7-23.2-5.7-23.2c-1.2,8.6-5.5,10.7-8.4,11.1c-0.1,0.5-0.6,1.6-0.2,3.6c0.9,4.1,9.9,44.7,13.7,48.1
		s11.4,8.8,18.5,10c7.1,1.1,4.6,4.4,9,4.9s6.8,1,9.7,4.6c2.8,3.5,9.4,3.2,14.4,3.9h0.5c0.1,0,0.1,0,0.2,0l0,0h0.3v-0.1
		c5-0.6,11.2-0.3,14-3.8c2.9-3.6,5.3-4.1,9.7-4.6s1.9-3.8,9-4.9s14.7-6.6,18.5-10s12.9-44,13.7-48.1
		C685,246.5,684.6,245.4,684.5,244.9z"/>
	<path class="st10" d="M552.1,212l6.6,3.5c0,0-1.4-1.9,2-6.3s6.7-3.4,2.8-12.8c-1.5-3.6-3.1-6.3-4.5-8.3c-2.2,3.9-3.3,6.9-4.1,9.6
		C553.5,202.9,552.1,212,552.1,212z"/>
	<path class="st10" d="M685.4,212l-6.6,3.5c0,0,1.4-1.9-2-6.3s-6.7-3.4-2.8-12.8c1.5-3.6,3.1-6.3,4.5-8.3c2.2,3.9,3.3,6.9,4.1,9.6
		C684,202.9,685.4,212,685.4,212z"/>
	<path class="st11" d="M616.5,285.1c0,0,16.6-0.7,16.9,6.1s-17,6.3-17,6.3s-13.8-0.6-14.9-6.3S616.5,285.1,616.5,285.1z"/>
	<path class="st12" d="M597.9,262c0,0,7.4-2.3,11.4-2.6s5.5-2.3,11.1-3.7c5.5-1.4,9.9-3.7,12.7-1.4s4,6.4,4.4,7.7
		c0.3,1.3,2.4,7.4,1.1,9.3s-4.6,9.1-9.1,10.7s-8,4-14.5,2.3s-11.5-4.2-11.7-8.6s1-6.6-2.2-10.2C597.9,262,597.9,262,597.9,262z"/>
	<path class="st2" d="M605.7,264c0,0,2.2,1.7,3.5,4.3c1.3,2.6,4.2,6.6,10,5.9s10.4-1.8,10.1-7.4s-1.9-9-5-9.4s-4.9,0.3-6.9,1.5
		C615.5,260.1,610.1,264.2,605.7,264z"/>
	<path class="st11" d="M628,215.5c0,0,0.4,2.3,8.1,3.3c7.7,0.9,16.4,1.8,21.7,0.9c5.3-0.9,9-2.1,10-3.8s-3.4-5.4-13-6.4
		c-13.7-1.4-9.8,0.1-14.1,0.5C635.2,210.6,630.9,214.1,628,215.5z"/>
	<path class="st13" d="M629.3,268.3h-20.1c1.3,2.6,4.2,6.6,10,5.9C624.5,273.6,628.7,272.6,629.3,268.3z"/>
	<path class="st11" d="M612.1,214.4c0,0-0.4,5.8-7.7,7.4c-7.3,1.6-15.6,3.1-20.7,1.6c-5-1.6-8.6-5.4-9.5-8.3
		c-1-2.9,3.6-9.9,12.7-7.7S607.2,210,612.1,214.4z"/>
	<path class="st10" d="M666.9,211c0,0-7.2-5.3-17.3-4.9s-19.4,4.9-19.4,4.9l0.3-13.5c0,0-5.3,3.6-7.1,5.3c-0.9,0.8-1.8,0.6-2.5,0.1
		v-1.1c0,0-0.2,0.3-0.6,0.7c-0.4-0.4-0.6-0.7-0.6-0.7v1.2c-0.7,0.4-1.6,0.7-2.5-0.1c-1.8-1.7-7.1-5.3-7.1-5.3l0.3,13.5
		c0,0-9.2-4.5-19.4-4.9s-17.3,4.9-17.3,4.9l-0.5,3.8c0,0,4.5-4.3,17.8-5.2s21,5,21,5.9s-3.8,2.9-6.2,3s-1.4,3.4-1.4,3.4
		s4.6-2.7,6-1.3s-0.7,9.2-1.3,10.5s-0.6,1.3-0.6,1.3l-8,0.7l-0.2,8.5c0,0,16.7,2.7,19.2,6.1c2.5-3.3,20.9-6.1,20.9-6.1l-0.2-8.5
		l-8-0.7c0,0,0,0-0.6-1.3s-2.7-9.1-1.3-10.5s11-1,11-1s-4-0.9-6.4-1s-6.3-2.1-6.2-3c0-0.9,7.6-6.8,21-5.9s17.8,5.2,17.8,5.2
		L666.9,211z"/>
	<polygon class="st11" points="620.3,207.3 616.5,207.3 614.4,239.8 619.8,241 625.3,239.8 623.4,207.3 	"/>
	<path class="st14" d="M602.8,215.1c0.9,1-2.5,3.5-6.8,3.9s-7.7,0.6-11.2-0.7s-3-5.1-3-5.1s1.4-2.2,8.9-1.4
		C598.3,212.7,600.5,212.5,602.8,215.1z"/>
	<path class="st2" d="M596.3,219c0.8-0.9,1.4-2.1,1.4-3.5c0-1.1-0.4-2.2-1-3c-1.5-0.2-3.4-0.3-5.9-0.6c-0.7-0.1-1.3-0.1-1.9-0.2
		c-1,1-1.6,2.3-1.6,3.8s0.6,2.8,1.6,3.7c2.2,0.2,4.6,0,7.3-0.2C596.1,219,596.2,219,596.3,219z"/>
	<path class="st14" d="M637.5,214.1c-0.9,1,2.5,3.5,6.8,3.9s7.7,0.6,11.2-0.7s3-5.1,3-5.1s-1.4-2.2-8.9-1.4
		C642,211.7,639.9,211.5,637.5,214.1z"/>
	<path class="st2" d="M644.1,218c-0.8-0.9-1.4-2.1-1.4-3.5c0-1.1,0.4-2.2,1-3c1.5-0.2,3.4-0.3,5.9-0.6c0.7-0.1,1.3-0.1,1.9-0.2
		c1,1,1.6,2.3,1.6,3.8s-0.6,2.8-1.6,3.7c-2.2,0.2-4.6,0-7.3-0.2C644.3,218,644.2,218,644.1,218z"/>
	<path class="st10" d="M549,234.7c-3.7-4.8-0.9-12.2,5.2-14.2c-3.8,3.1-3.4,9.2,0.8,12c-0.6,1.7-2.1,3.4-4.2,3.7
		c-2.1,0.3-4.5-1.3-4-3.1"/>
	<path class="st10" d="M691.7,233.1c0.5,1.8-1.9,3.4-4,3.1c-2.1-0.3-3.6-2-4.2-3.7c4.2-2.8,4.6-8.9,0.8-12c6.1,2,8.9,9.4,5.2,14.2"
		/>
	<path class="st8" d="M610,199.7v11c0,0-13.2-6-19.8-6.1c-6.7-0.2-16.7,4.5-17.6,7.1c0,0,3.8-14,9.2-16
		C587.2,193.6,610,199.7,610,199.7z"/>
	<path class="st15" d="M610,200.7v11c0,0-13.2-6-19.8-6.1c-6.7-0.2-16.7,4.5-17.6,7.1c0,0,3.1-12.7,8.5-14.7
		C586.5,195.9,610,200.7,610,200.7z"/>
	<path class="st8" d="M657.2,195.7c5.4,2,9.2,16,9.2,16c-0.9-2.6-10.9-7.3-17.6-7.1c-6.6,0.1-19.8,6.1-19.8,6.1v-11
		C629,199.7,651.8,193.6,657.2,195.7z"/>
	<path class="st15" d="M657.9,198c5.4,2,8.5,14.7,8.5,14.7c-0.9-2.6-10.9-7.3-17.6-7.1c-6.6,0.1-19.8,6.1-19.8,6.1v-11
		C629,200.7,652.5,195.9,657.9,198z"/>
	<path class="st16" d="M551.6,214.8c0,0-5.1-42.4,0-50.1c5.1-7.7,17.7,0.2,14.9-7.2s-1-15.9-8.4-15.9c0,0,14.9-10.3,23.4,0
		s19.5,19.2,37.6,21.3c0,0,1.5-8.9-3.6-15.4s14.9,1.2,20.8,8s25.7,7.3,25.7,7.3s51.8,11.5,78.2,2.8c0,0-32.5,16.6-47.9,17.7
		c-15.3,1-18,30.7-18,30.7l-7-30.6c0,0-32.9,9.7-51.9,9.2s-40.2-20.8-47-15C561.7,183.2,555,203.5,551.6,214.8z"/>
	<line class="st17" x1="915.9" y1="349.8" x2="914.9" y2="349.5"/>
	<path class="st4" d="M901.4,353.1c-6.2,0.5-10.9-2.5-15.3-6.3c-4.4-5.6-7.1-11.6-4.2-18.8c5.9-1.2,11.8-2.4,17.7-3.6
		c1.9,4,3.9,8,5.7,12c2.3,5.1,4.4,10.2,9.6,13.1C910.6,351.2,906.2,353,901.4,353.1z"/>
	<path class="st1" d="M881.5,329c5.9-1.2,12.2-2.5,18.1-3.7c0.6-5.1,3.1-13.2,7.5-16.6c-4.8-2.5-7.9-1.7-11.9-1.1
		C890.6,312.5,883.5,322.3,881.5,329z"/>
	<path class="st2" d="M894.9,332.7c-2.9-0.2-4.7,1.4-4.9,4.3c-0.1,2.7,1.5,4.5,4.1,4.7c2.8,0.2,4.6-1.3,4.8-4.8
		C899,334.5,897.5,332.9,894.9,332.7z"/>
	<path class="st18" d="M462.3,917.4c-1.6,5.3-1.1,12.1,3,15.2c2.4,1.8,5.4,1.9,8.3,2c24,0.6,48,1.2,72.1,1.8
		c1.1-4.3,2.6-8.7,5.6-11.5s8-3.4,10.6-0.1c1.9,2.4,2.2,6.1,4.4,8.1c1.9,1.7,4.5,1.6,6.8,1.4c8.4-0.6,16.9-1.2,25.3-1.8
		c0.8-3.2,1.4-9.5,2-12.8L462.3,917.4z"/>
	<path class="st18" d="M626.7,919.7c0.6,3.3,1.2,9.6,2,12.8c8.4,0.6,16.9,1.2,25.3,1.8c2.3,0.2,4.9,0.3,6.8-1.4
		c2.2-2,2.5-5.7,4.4-8.1c2.6-3.3,7.6-2.7,10.6,0.1s4.5,7.2,5.6,11.5c24.1-0.6,48.1-1.2,72.1-1.8c2.9-0.1,5.9-0.2,8.3-2
		c4.1-3.1,4.6-9.9,3-15.2L626.7,919.7z"/>
	<path class="st3" d="M639.3,919.7"/>
	<path class="st3" d="M626.7,919.7l138.1-2.3l0,0c-3.1-10.5-12-17.4-20.9-21.8c-17.5-9.2-38.3-11.1-56.9-6.5
		c-19.9,4.8-39.7,4.2-60.2,4.5c-0.7,0-1.4,0.1-1.9,0.6c-0.6,0.6-0.6,1.6-0.6,2.4L626.7,919.7"/>
	<path class="st2" d="M624.9,894.2c0.5-0.5,1.2-0.6,1.9-0.6c11.7-0.2,23.1-0.1,34.5-0.8c-2.1-1.7-4.3-4.2-6.3-7.8
		c-7.9-13.6-13.9-130-14.7-155s-8.3-80-3.9-83.4s8.4-14.6,8.4-14.6s-18.8,3-33.7,4.8s-32.4,0-32.4,0c-0.3,5.8,25,9.8,25,9.8
		l21.1,247.8C624.9,894.3,624.9,894.3,624.9,894.2z"/>
	<path class="st10" d="M976.5,317.4c0,0-4.4,0-5-0.2C973.2,317.6,974.9,317.8,976.5,317.4z"/>
	<path class="st9" d="M1008.9,301c-1.3-4-5.2-3-16.8-4.9s-31.7-5.7-49.8-1.2c-11.6,2.9-7.2,3.1-14.5,4.8c-6.7,1.6-17.1,6.4-21.3,8.7
		c0.2,0.1,0.4,0.2,0.6,0.3c-4.2,3.2-6.7,10.8-7.4,15.9c1.9,3.9,3.8,7.9,5.6,11.8c2.3,5.1,4.4,10.2,9.6,13.1
		c-0.3,0.1-0.6,0.2-0.9,0.4c0.1,0,0.2,0.1,0.3,0.1c3.6,1.7,13,2.4,28.8,2.9c15.7,0.5,15.5-1.7,20.4-4.3c4.8-2.7,6.7-6.1,5.5-8.3
		c-1.2-2.2,2.4-5.6,4.3-7.7c1.9-2.1,1.7-3.5,0.2-4.7s-0.7-3.3,1.7-4.6c2.4-1.3,1.4-3.8,3.1-5.9c0,0,6.7-0.3,7.1-3.8
		c1.2-1.7,0.5-4.6-1.6-6.2c-2.9-2.2-7.7-1-6.3-1.4c1.4-0.5,19.3-0.5,26.6-0.7C1011.3,305.1,1009.1,303.6,1008.9,301z"/>
	<path class="st10" d="M968.6,338.8c0,0,0.4-1.5,1.5-2.7c-3.7,2.6-37.5,6.1-26.3-5.8c9.7,1.2,24.1-0.8,30.1-4.2l-1.1-2
		c-6.6,3.8-21.7,4.8-29.9,2.9c-2.5-4.7,4.9-7.1,6.2-6.2c3.3,1,19.2-5.4,22.4-3.6c-24.5-13.3-43.7,27.9-65.7,11.9
		c10,18,16.8,1.7,28.8,4c4.9,4.7,5.7,11.7,11.9,15.4c-2.8,1.5-22.5,2.3-31.6,1l1,0.3c0,0-0.3,0.3-0.8,0.8c11.2,2.5,39.8,4.1,44,0.6
		c7.1-2.3,14.9-9.6,8.2-10.6c-4.6,9-22.3,9.2-24.1-1.6C945.9,340.5,967.7,339.4,968.6,338.8z"/>
	<path class="st9" d="M283.4,354.4c9.9-6.5,20.5-10,32.1-10.7c3.2-0.2,6-1.4,8.4-3.5c6.1-5.3,7.5-13,3.7-21.3
		c-1.6-3.5-3.8-6.8-6-9.6c-0.2-0.2-0.4-0.5-0.6-0.8c-1.2-1.3-2.4-2.5-1.5-4.4c-10.5-7-22.5-17.6-31.5-13.6
		c-5.5,2-15.6,10.8-8.1,15.2c4.5,2,17.4-4.3,14.5,4.1c-13.7,11.6-18.9-11.7-24.9-3.6c-5.3,8,9.2,15.2,10.4,16.2
		c-7,3.4-30.9-10.2-35.8-0.6c-4,11.1,23.6,9.5,25.9,11.4c1.3,4.9-16.5,0.4-18.2,2.7c-9.5,3.6-6.1,11.2,7.9,11.5
		c11.8,1.2,20.1-2.1,17.5,1.7c-8.1,0.4-28,9.4-14.5,13.6l-0.1-0.1C270.1,361.4,277.1,358.5,283.4,354.4z"/>
	<path class="st19" d="M332.6,308.7c-5,0.7-9.1-2.5-13.1-4.7c-1.3,2.3,0.7,3.6,2.1,5.3c2.2,2.8,4.4,6.1,6,9.6
		c3.8,8.3,2.4,16-3.7,21.3c-2.4,2.1-5.2,3.3-8.4,3.5c-11.6,0.7-22.2,4.2-32.1,10.7c-6.3,4.1-13.3,7-20.9,8.3c1.3,0.9,2.8,0.9,4.1,1
		c7.1,0.6,13.6-1.6,19.8-4.8c12.4-6.4,25.4-10,39.4-10c4.5-3,6.5-7.8,8.7-12.6c0.5-1.2,1.1-2.4,1.7-3.6c1.2-3.2,2.7-5.1,3.9-8.2
		c-0.7-3.7-2.4-9.6-4.7-12.9"/>
	<path class="st19" d="M303.9,319c2.5,1,3.9,1.8,5.5,2.2c1.2,0.3,2.7-0.1,3,1.9c0.3,1.7,0.1,3.3-1.3,4.4c-0.9,0.7-2,1.3-3.1,1.8
		c-1.8,0.9-4.6,2.2-5.4,0.7c-1-1.9,1.9-2.5,3.5-3.2c1.3-0.5,1.4-1.3,0.7-2.5C305.9,322.8,305.2,321.3,303.9,319z"/>
	<path class="st4" d="M901.4,353.1c-6.2,0.5-10.9-2.5-15.3-6.3c-4.4-5.6-7.1-11.6-4.2-18.8c5.9-1.2,11.8-2.4,17.7-3.6
		c1.9,4,3.9,8,5.7,12c2.3,5.1,4.4,10.2,9.6,13.1C910.6,351.2,906.2,353,901.4,353.1z"/>
	<path class="st1" d="M881.5,329c5.9-1.2,12.2-2.5,18.1-3.7c0.6-5.1,3.1-13.2,7.5-16.6c-4.8-2.5-7.9-1.7-11.9-1.1
		C890.6,312.5,883.5,322.3,881.5,329z"/>
	<path class="st2" d="M894.9,332.7c-2.9-0.2-4.7,1.4-4.9,4.3c-0.1,2.7,1.5,4.5,4.1,4.7c2.8,0.2,4.6-1.3,4.8-4.8
		C899,334.5,897.5,332.9,894.9,332.7z"/>
	<path class="st4" d="M358.2,329c-5.9-1.2-12.2-2.5-18.1-3.7c0-0.2-0.1-0.5-0.1-0.7c-1.9,3.9-3.8,7.9-5.6,11.8
		c-2.3,5.1-4.4,10.2-9.6,13.1c4.3,1.7,8.7,3.5,13.5,3.6c6.2,0.5,10.9-2.5,15.3-6.3C357.8,341.5,360.4,335.8,358.2,329z"/>
	<path class="st2" d="M340.8,336.9c0.2,3.5,2,5,4.8,4.8c2.6-0.2,4.2-2,4.1-4.7c-0.2-2.9-2-4.5-4.9-4.3
		C342.2,332.9,340.7,334.5,340.8,336.9z"/>
	<path class="st1" d="M344.5,307.6c-4-0.6-7.1-1.4-11.9,1.1c4.4,3.4,6.9,11.5,7.5,16.6c5.9,1.2,12.2,2.5,18.1,3.7
		C356.2,322.3,349.1,312.5,344.5,307.6z"/>
</g>
<g id="skeleton">
	<g id="skeleton_1_">
		<polygon class="st20" points="512.5,316.8 562.8,562.6 679.2,561.8 725.4,316.8 		"/>
		<polyline class="st20" points="511.5,316.8 408.8,346.8 295.5,330.1 		"/>
		<polyline class="st20" points="726.9,316.4 830.1,346.4 933.4,332.8 		"/>
		<polyline class="st20" points="562.8,562.6 569.2,722.8 569.2,880.8 		"/>
		<polyline class="st20" points="679.2,561.8 679.2,722.8 679.2,880.8 		"/>
		<polyline class="st20" points="618.2,167.3 598.4,169.8 585.9,179.3 577.3,193.4 574.8,202.7 574,214.4 574,223.9 574.8,245.6 
			581.6,265.6 593.2,278.1 603.2,284.8 618.2,288 633,285.2 643,278.5 654.6,265.9 661.4,245.9 662.2,224.3 662.2,214.7 661.4,203 
			658.9,193.8 650.7,179.3 638.1,169.8 618.2,167.3 		"/>
		<polyline class="st20" points="582.2,204.2 586.2,200.5 592.4,199.5 599.7,199.5 609.5,203.5 		"/>
		<polygon class="st20" points="588.4,212.4 593.6,208.7 599.9,208.7 605.1,212.9 599.9,213.9 593.6,214.7 		"/>
		<polyline class="st20" points="606.7,230.5 611.9,230.5 617.4,231.3 617.4,226 617.4,218.9 617.4,213.4 617.4,207.6 		"/>
		<polyline class="st20" points="653.7,203.8 649.7,200.9 643.4,199.4 636.1,199.8 626.1,203 		"/>
		<polygon class="st20" points="647.8,212.4 642.5,208.7 636.2,208.7 631.1,212.9 636.2,213.9 642.5,214.7 		"/>
		<polyline class="st20" points="627.8,230.5 622.8,230.5 617.4,231.3 		"/>
		<polygon class="st20" points="600.7,252.6 607.6,249.2 614.1,248.1 618.2,249 622.4,248.1 628.8,249.2 635.7,252.6 629.3,258.9 
			622.2,261.7 618.2,262.2 614.1,261.7 607.1,258.9 		"/>
		<polyline class="st20" points="600.7,252.6 604.3,252.9 614.3,252.1 618.2,252.6 622.2,252.1 632.1,252.9 635.7,252.6 		"/>
		<polyline class="st20" points="600.7,252.6 604.3,252.9 614.3,255 618.2,255.8 622.2,255 632.1,252.9 635.7,252.6 		"/>
		<circle id="rightShoulder_1_" cx="512.6" cy="316.5" r="8.2"/>
		<circle id="rightElbow_1_" cx="409.1" cy="346.6" r="8.2"/>
		<circle id="rightWrist_1_" cx="295.7" cy="330" r="8.2"/>
		<circle id="rightHip_1_" cx="562.9" cy="562.3" r="8.2"/>
		<circle id="rightKnee_1_" cx="569.3" cy="722.5" r="8.2"/>
		<circle id="rightAnkle_1_" cx="569.3" cy="880.5" r="8.2"/>
		<circle id="leftElbow_1_" cx="829.9" cy="346.2" r="8.2"/>
		<circle id="leftWrist_1_" cx="933.3" cy="332.5" r="8.2"/>
		<circle id="leftHip_1_" cx="679.3" cy="561.5" r="8.2"/>
		<circle id="leftKnee_1_" cx="679.3" cy="722.5" r="8.2"/>
		<circle id="leftAnkle_1_" cx="679.3" cy="880.5" r="8.2"/>
		<circle id="rightEye0_1_" cx="588.4" cy="212.4" r="0.8"/>
		<circle id="rightBrow1_1_" cx="586.2" cy="200.5" r="0.8"/>
		<circle id="rightBrow4_1_" cx="609.5" cy="203.5" r="0.8"/>
		<circle id="nose1_1_" cx="617.4" cy="213.4" r="0.8"/>
		<circle id="rightBrow3_1_" cx="599.7" cy="199.5" r="0.8"/>
		<circle id="rightEye1_1_" cx="593.6" cy="208.7" r="0.8"/>
		<circle id="rightBrow0_1_" cx="582.2" cy="204.2" r="0.8"/>
		<circle id="rightBrow2_1_" cx="592.4" cy="199.5" r="0.8"/>
		<circle id="rightEye5_1_" cx="593.6" cy="214.7" r="0.8"/>
		<circle id="rightEye2_1_" cx="599.9" cy="208.7" r="0.8"/>
		<circle id="rightEye3_1_" cx="605.1" cy="212.9" r="0.8"/>
		<circle id="nose0_1_" cx="617.4" cy="207.6" r="0.8"/>
		<circle id="nose3_1_" cx="617.4" cy="226" r="0.8"/>
		<circle id="rightNose0_1_" cx="606.7" cy="230.5" r="0.8"/>
		<circle id="rightMouthCorner_1_" cx="600.7" cy="252.6" r="0.8"/>
		<circle id="rightNose1_1_" cx="611.9" cy="230.5" r="0.8"/>
		<circle id="rightUpperLipTop0_1_" cx="607.6" cy="249.2" r="0.8"/>
		<circle id="nose2_1_" cx="617.4" cy="218.9" r="0.8"/>
		<circle id="nose4_1_" cx="617.4" cy="231.3" r="0.8"/>
		<circle id="upperLipTopMid_1_" cx="618.2" cy="249" r="0.8"/>
		<circle id="rightUpperLipTop1_1_" cx="614.1" cy="248.1" r="0.8"/>
		<path id="rightMiddleLip_1_" d="M604.3,252.1c0.4,0,0.8,0.4,0.8,0.8c0,0.4-0.4,0.8-0.8,0.8s-0.8-0.4-0.8-0.8
			S603.9,252.1,604.3,252.1z"/>
		<circle id="lowerLipBottomMid_1_" cx="618.2" cy="262.2" r="0.8"/>
		<circle id="upperLipBottomMid_1_" cx="618.2" cy="252.6" r="0.8"/>
		<circle id="lowerLipTopMid_1_" cx="618.2" cy="255.7" r="0.8"/>
		<circle id="rightUpperLipBottom1_1_" cx="614.3" cy="252.1" r="0.8"/>
		<circle id="rightLowerLipTop0_1_" cx="614.3" cy="255" r="0.8"/>
		<circle id="rightLowerLipBottom1_1_" cx="614.1" cy="261.7" r="0.8"/>
		<circle id="rightLowerLipBottom0_1_" cx="607.1" cy="258.9" r="0.8"/>
		<circle id="rightEye4_1_" cx="599.9" cy="213.9" r="0.8"/>
		<circle id="jawMid_1_" cx="618.2" cy="288" r="0.8"/>
		<circle id="rightJaw7_1_" cx="603.2" cy="284.8" r="0.8"/>
		<circle id="rightJaw6_1_" cx="593.2" cy="278.1" r="0.8"/>
		<circle id="rightJaw5_1_" cx="581.6" cy="265.6" r="0.8"/>
		<circle id="rightJaw4_1_" cx="574.8" cy="245.6" r="0.8"/>
		<circle id="rightJaw3_1_" cx="574" cy="223.9" r="0.8"/>
		<circle id="rightJaw2_1_" cx="574" cy="214.4" r="0.8"/>
		<circle id="rightJaw1_1_" cx="574.8" cy="202.7" r="0.8"/>
		<circle id="rightJaw0_1_" cx="577.3" cy="193.4" r="0.8"/>
		<circle id="topMid_1_" cx="618.4" cy="167.3" r="0.8"/>
		<circle id="leftTop0_1_" cx="638.1" cy="169.8" r="0.8"/>
		<circle id="leftTop1_1_" cx="650.7" cy="179.3" r="0.8"/>
		<circle id="leftEye0_1_" cx="648" cy="212.4" r="0.8"/>
		<circle id="leftBrow1_1_" cx="649.9" cy="200.9" r="0.8"/>
		<circle id="leftBrow4_1_" cx="626.3" cy="203" r="0.8"/>
		<circle id="leftBrow3_1_" cx="636.3" cy="199.8" r="0.8"/>
		<circle id="leftEye1_1_" cx="642.8" cy="208.7" r="0.8"/>
		<circle id="leftBrow0_1_" cx="653.9" cy="203.8" r="0.8"/>
		<circle id="leftBrow2_1_" cx="643.6" cy="199.4" r="0.8"/>
		<circle id="leftEye5_1_" cx="642.8" cy="214.7" r="0.8"/>
		<circle id="leftEye2_1_" cx="636.5" cy="208.7" r="0.8"/>
		<circle id="leftEye3_1_" cx="631.3" cy="212.9" r="0.8"/>
		<circle id="leftNose0_1_" cx="627.8" cy="230.5" r="0.8"/>
		<circle id="leftMouthCorner_1_" cx="635.7" cy="252.6" r="0.8"/>
		<circle id="leftNose1_1_" cx="623" cy="230.5" r="0.8"/>
		<circle id="leftUpperLipTop0_1_" cx="628.8" cy="249.2" r="0.8"/>
		<circle id="leftUpperLipTop1_1_" cx="622.4" cy="248.1" r="0.8"/>
		<path id="leftMiddleLip_1_" d="M632.1,252.1c0.4,0,0.8,0.4,0.8,0.8c0,0.4-0.4,0.8-0.8,0.8s-0.8-0.4-0.8-0.8
			S631.7,252.1,632.1,252.1z"/>
		<circle id="leftUpperLipBottom1_1_" cx="622.2" cy="252.1" r="0.8"/>
		<circle id="leftLowerLipTop0_1_" cx="622.2" cy="255" r="0.8"/>
		<circle id="leftLowerLipBottom1_1_" cx="622.4" cy="261.7" r="0.8"/>
		<circle id="leftLowerLipBottom0_1_" cx="629.3" cy="258.9" r="0.8"/>
		<circle id="leftEye4_1_" cx="636.5" cy="213.9" r="0.8"/>
		<circle id="leftJaw7_1_" cx="633" cy="285.2" r="0.8"/>
		<circle id="leftJaw6_1_" cx="643" cy="278.5" r="0.8"/>
		<circle id="leftJaw5_1_" cx="654.6" cy="265.9" r="0.8"/>
		<circle id="leftJaw4_1_" cx="661.4" cy="245.9" r="0.8"/>
		<circle id="leftJaw3_1_" cx="662.2" cy="224.3" r="0.8"/>
		<circle id="leftJaw2_1_" cx="662.2" cy="214.7" r="0.8"/>
		<circle id="leftJaw1_1_" cx="661.4" cy="203" r="0.8"/>
		<circle id="leftJaw0_1_" cx="658.9" cy="193.8" r="0.8"/>
		<circle id="rightTop0_1_" cx="598.5" cy="169.8" r="0.8"/>
		<circle id="rightTop1_1_" cx="585.9" cy="179.3" r="0.8"/>
		<circle id="leftShoulder_1_" cx="725.5" cy="316.5" r="8.2"/>
	</g>
</g>
</svg>
