<?xml version="1.0" encoding="utf-8"?>
<!-- Generator: Adobe Illustrator 24.2.0, SVG Export Plug-In . SVG Version: 6.00 Build 0)  -->
<svg version="1.1" id="Layer_1_1_" xmlns="http://www.w3.org/2000/svg" xmlns:xlink="http://www.w3.org/1999/xlink" x="0px" y="0px"
	 viewBox="0 0 1200 1200" enable-background="new 0 0 1200 1200" xml:space="preserve">
<g id="illustration">
	<path fill="#3E4B59" d="M721.3,564.2l-103.4,1.1l-103.4-1.1c0,0-7.6,84.6-3.8,134.9c3.8,50.3,16.4,210.7,16.4,210.7h81.6
		c0,0,0.1-172.9,0.8-192.8c0.5-15.4-3.5-51.5-2.8-70.4c4.3,1.4,9,1.2,13.4,0.3c3-0.7,7,0.3,9.9-0.8c1.2,18.1-4.2,54.9-3.7,71
		c0.7,19.8,0.8,192.8,0.8,192.8h81.6c0,0,12.6-160.4,16.4-210.7C728.9,648.8,721.3,564.2,721.3,564.2z"/>
	<path fill="#75483E" d="M745.7,905.6c8.9,4.4,17.8,11.3,20.9,21.8c1.6,5.3,1.1,12.1-3,15.2c-2.4,1.8-5.4,1.9-8.3,2
		c-24,0.6-48,1.2-72.1,1.8c-1.1-4.3-2.6-8.7-5.6-11.5s-8-3.4-10.6-0.1c-1.9,2.4-2.2,6.1-4.4,8.1c-1.9,1.7-4.5,1.6-6.8,1.4
		c-8.4-0.6-16.9-1.2-25.3-1.8c-2.8-11.7-4.2-23.8-4.4-35.9c0-0.8,0-1.8,0.6-2.4c0.5-0.5,1.2-0.6,1.9-0.6c20.5-0.3,40.3,0.3,60.2-4.5
		C707.5,894.5,728.3,896.4,745.7,905.6z"/>
	<path fill="#75483E" d="M486.2,905.6c-8.9,4.4-17.8,11.3-20.9,21.8c-1.6,5.3-1.1,12.1,3,15.2c2.4,1.8,5.4,1.9,8.3,2
		c24,0.6,48,1.2,72.1,1.8c1.1-4.3,2.6-8.7,5.6-11.5s8-3.4,10.6-0.1c1.9,2.4,2.2,6.1,4.4,8.1c1.9,1.7,4.5,1.6,6.8,1.4
		c8.4-0.6,16.9-1.2,25.3-1.8c2.8-11.7,4.2-23.8,4.4-35.9c0-0.8,0-1.8-0.6-2.4c-0.5-0.5-1.2-0.6-1.9-0.6c-20.5-0.3-40.3,0.3-60.2-4.5
		C524.5,894.5,503.7,896.4,486.2,905.6z"/>
	<path fill="#633D37" d="M465.3,927.4c-1.6,5.3-1.1,12.1,3,15.2c2.4,1.8,5.4,1.9,8.3,2c24,0.6,48,1.2,72.1,1.8
		c1.1-4.3,2.6-8.7,5.6-11.5s8-3.4,10.6-0.1c1.9,2.4,2.2,6.1,4.4,8.1c1.9,1.7,4.5,1.6,6.8,1.4c8.4-0.6,16.9-1.2,25.3-1.8
		c0.8-3.2,1.4-9.5,2-12.8L465.3,927.4z"/>
	<path fill="#633D37" d="M767.5,927.4c1.6,5.3,1.1,12.1-3,15.2c-2.4,1.8-5.4,1.9-8.3,2c-24,0.6-48,1.2-72.1,1.8
		c-1.1-4.3-2.6-8.7-5.6-11.5s-8-3.4-10.6-0.1c-1.9,2.4-2.2,6.1-4.4,8.1c-1.9,1.7-4.5,1.6-6.8,1.4c-8.4-0.6-16.9-1.2-25.3-1.8
		c-0.8-3.2-1.4-9.5-2-12.8L767.5,927.4z"/>
	<path fill="#F8974F" d="M1015.1,296.1c-11.6-1.9-31.7-5.7-49.8-1.2c-11.6,2.9-7.2,3.1-14.5,4.8c-7.2,1.7-18.8,7.2-22.2,9.2
		c-3.4,1.9-8,2-8,2s-5.5,6.7-7.7,15.4c-2.2,8.7,13.1,24.2,15,23.4c1.9-0.7,5.8-1.4,5.8-1.4s0,0,3.6,1.7s13,2.4,28.8,2.9
		c15.7,0.5,15.5-1.7,20.4-4.3c4.8-2.7,6.7-6.1,5.5-8.3s2.4-5.6,4.3-7.7c1.9-2.1,1.7-3.5,0.2-4.7s-0.7-3.3,1.7-4.6s1.4-3.8,3.1-5.9
		c0,0,6.7-0.3,7.1-3.8l0,0c1.2-1.7,0.5-4.6-1.6-6.2c-2.9-2.2-7.7-1-6.3-1.4c1.4-0.5,19.3-0.5,26.6-0.7c7.2-0.2,3.4-1.7,4.8-4.3
		C1033.5,298.3,1026.7,298,1015.1,296.1z"/>
	<path fill="#F46F33" d="M1008.2,308.8c0,0-3.3-1.1-5.6-1.3c0,0,2.7-0.6,3.5-0.3S1007.1,307.6,1008.2,308.8z"/>
	<path fill="#F46F33" d="M981.3,301.2c2.5,0.1,4.9-0.5,7.4-0.7c7.2-0.7,14.3,2.5,21.5,1.9c1.7-0.2,3.4-0.5,5.1-0.5
		c3,0,5.9,1.3,8.9,1.8c3,0.5,6.6-0.1,8.1-2.8c0.6,1.8-0.6,3.8-2.2,4.6s-3.6,0.9-5.5,0.9c-6.7,0-13.4-0.3-20.1-0.7
		c0.7,0.4,1.2,0.9,1.6,1.5c-0.5,0.3-1.2,0.5-2,0.5c-2.3,0-5.5-1.3-7.1-1.6c-3.4-0.7-6.8-1.3-10.2-1.8c-0.4-0.1-0.8-0.1-1.3-0.2
		c-1-0.1-2.1-0.2-3.1-0.3c-1.6-0.2-5,0-7.1-0.5c-0.1,0-0.2,0-0.3,0c-2.8,0-5.6-0.7-8.1-1.9c-0.1,0-0.2,0,0,0
		c-0.1-0.1-0.2-0.1-0.3-0.2C966.6,301.2,974.3,300.8,981.3,301.2z"/>
	<path fill="#F46F33" d="M972.1,320.8c3.3,1,19.2-5.4,22.4-3.6c-24.5-13.3-43.7,27.9-65.7,11.9c10,18,16.8,1.7,28.8,4
		c4.9,4.7,5.7,11.7,11.9,15.4c-3.4,1.8-32.4,2.6-35.8-0.2c-3,3.4,42.9,7.4,48.4,2.9l0,0c7.1-2.3,14.9-9.6,8.2-10.6
		c-4.6,9-22.3,9.2-24.1-1.6c2.7,1.5,24.5,0.4,25.4-0.2c0,0,0.4-1.5,1.5-2.7c-3.7,2.6-37.5,6.1-26.3-5.8c9.7,1.2,24.1-0.8,30.1-4.2
		l-1.1-2c-6.6,3.8-21.7,4.8-29.9,2.9C963.4,322.3,970.8,319.9,972.1,320.8z"/>
	<path fill="#F46F33" d="M999.5,317.4c0,0-4.4,0-5-0.2C996.2,317.6,997.9,317.8,999.5,317.4z"/>
	<path fill="#CECFD3" d="M567.3,299.5c-16.1,11.1-58.6,47.5-66.4,100.8s-18.4,117.1-17.4,146.1s10.2,8.6,34.1,12.1
		c23.9,3.4,38.1,34.3,107.8,34.3l-2.6-302.4C622.9,290.4,583.5,288.3,567.3,299.5z"/>
	<path fill="#CECFD3" d="M744.9,400.3c-7.7-53.3-50.2-89.7-66.3-100.8c-16.1-11.1-55.6-9.1-55.6-9.1l2.5,302.4
		c54.5,0,69.7-30.9,93.6-34.3s42.1,17,43.1-12S752.6,453.7,744.9,400.3z"/>
	<path fill="#7E7F7F" d="M483.6,546.4c1,29,10.2,8.6,34.1,12.1c23.9,3.4,38.1,34.3,107.8,34.3"/>
	<path fill="#7E7F7F" d="M625.5,592.8c54.5,0,69.7-30.9,93.6-34.3s42.1,17,43.1-12h-58.5c0,0-36.6,32.2-78.4,32.2
		s-55-30.8-85.6-37.3s-56.1,5.1-56.1,5.1"/>
	<path fill="#F0EEEA" d="M633.3,311.1l18.7,21.8l12.9,3.4l10.5-22.8c0,0-12.5-23.1-28.9-23.9S633.3,311.1,633.3,311.1z"/>
	<path fill="#E14B5E" d="M606.5,292.2l9.2,18.9h17.6l8.3-21.5c0,0-23.1-8.1-35.1,1.6"/>
	<path fill="#F0EEEA" d="M581.8,335.2c-8,1.2-11.2-25-11.2-25s13.4-20.8,31-21.5s17.1,9.9,15.5,20.1c-1.1,7.1-16.1,21-26.1,26.5
		C586.7,337.6,581.8,335.2,581.8,335.2"/>
	<path fill="#B83647" d="M615.7,311.1c0,0-13.3,37.8-15.8,52.5s3,43.4,3,43.4s18.3,45.8,20.4,44.8c2.1-1,20.3-50,20.3-50
		s1-29.6-0.9-39.8s-9.4-50.9-9.4-50.9H615.7z"/>
	<path fill="#303847" d="M622.9,290.4l-31.2,2L576.6,330l14.4,5.3l-23.6,9l12.2,232l-100.8,2.9l32-249.3c0,0,12.2-35.4,42.5-36.1
		C583.5,293.2,622.9,290.4,622.9,290.4z"/>
	<path fill="#303847" d="M617.1,291.2l39.3-0.1c0,0,15.2,33.6,13.6,36.5c-1.6,2.9-16.8,6.7-18,5.2c-1.2-1.4,24.2,7.4,24.2,7.4
		l3.6,233.3l100.7-3.9l-48.8-246.5c0,0-14.6-34.5-44.9-33.1C656.6,291.4,617.1,291.2,617.1,291.2z"/>
	<path fill="#313948" d="M541.3,296.1c-65.7,40-147,27.1-147,27.1s-15.1,27.7-8.7,46.1c-0.7,0-1.3,0.1-2,0.1
		c-15.5,0.7-30.8-0.4-46.1-3c-4.1,4.1-8.6,7.4-14.8,7.4c0.2,2.5,2.4,3.1,4,4.1c9.7,6.3,20.7,9,32,10.5c20.6,2.7,40.9,0.2,61.3-3.1
		c61.3-3.1,130.8-25.9,134.9-42.6C558.9,326,541.3,296.1,541.3,296.1z"/>
	<path fill="#F0EEEA" d="M664.9,336.3"/>
	<path fill="#F8974F" d="M244.7,384.9c-2.5-0.5-4.2-1.8-4.3-4.5s2.1-3.7,4.1-4.4c4.8-1.7,9.8-3.1,14.7-4.6c1-0.3,2.1-0.5,3.1-1.9
		c-8.2,0.6-16,0.9-23.8-0.1c-2.6-0.3-5.1-0.8-7.3-2.2c-3.7-2.3-3.6-5.8,0.2-7.9c3.3-1.9,6.9-2.1,10.6-1.8c5,0.4,10,0.4,15.5-0.6
		c-2.7-1.4-5.2-1-7.5-1.3c-6.3-0.9-12.6-1.6-18.6-3.9c-2.7-1.1-5.9-2.1-5.1-6.1c0.8-3.9,4.1-4.4,7.2-4.6c4.2-0.2,8.3,0.9,12.3,2
		c5.2,1.4,10.5,2.6,16.2,1.7c-7.4-3-12.9-7.2-10.4-16.2c1-3.4,3.7-2.8,6.7-1.9c-1.6-3.5-0.1-5.4,2.5-7c3.9-2.4,6.4-7,12-6.8
		c7.9,0.4,15.3,1.7,21.2,7.6c2.5,2.5,5.3,4.6,7.9,6.9c0,1.8,0.9,3.1,2.1,4.3c2.6,2.8,4.4,6.1,6,9.6c3.7,8.3,2.4,16-3.7,21.3
		c-2.4,2.1-5.2,3.3-8.4,3.5c-11.7,0.7-22.3,4.2-32.1,10.7C259.4,380.7,252.3,383.6,244.7,384.9z M258.4,326.6
		c0.1,2.9,0.2,4.9,2.5,5.9c4.2,1.9,8.6,2.3,13.1,1.4c2.2-0.5,3.3-2.1,2.3-4.2c-0.9-1.8-1.9-4.2-4.8-2.2
		C267.3,330.3,263,330.9,258.4,326.6z M286.1,341.2c1.2,2.3,2,3.8,2.8,5.3c0.7,1.2,0.6,2-0.7,2.5c-1.6,0.6-4.5,1.2-3.5,3.2
		c0.8,1.5,3.6,0.3,5.4-0.7c1.1-0.6,2.2-1.1,3.1-1.8c1.4-1.1,1.6-2.6,1.3-4.4c-0.3-2-1.8-1.5-3-1.9
		C290.1,343,288.7,342.3,286.1,341.2z"/>
	<path fill="#F37034" d="M244.7,384.9c7.6-1.3,14.6-4.2,20.9-8.3c9.9-6.5,20.5-10,32.1-10.7c3.2-0.2,6-1.4,8.4-3.5
		c6.1-5.3,7.5-13,3.7-21.3c-1.6-3.5-3.4-6.8-6-9.6c-1.1-1.2-2.1-2.5-2.1-4.3c4,2.2,7.8,5.1,12.8,4.4c0.3,0.1,0.6,0.3,0.9,0.4
		c4.6,3.1,5.9,8,6.9,13c-1.6,4.1-3.4,8.2-4.9,12.4c-1.9,5.2-3.7,10.4-8.7,13.7c-14.2-0.1-27.5,3.5-40.1,10
		c-6.2,3.2-12.7,5.4-19.8,4.8C247.5,385.8,246,385.8,244.7,384.9z"/>
	<path fill="#CECFD3" d="M308.9,371.1c5-3.2,6.8-8.5,8.7-13.7c1.5-4.2,3.3-8.3,4.9-12.4c6,0.8,11.9,1.6,17.9,2.3
		c3.3,7,1,13.2-2.9,19.1c-4.1,4.1-8.6,7.4-14.8,7.4C317.8,374,313.4,372.5,308.9,371.1z M324,357.4c0.4,3.5,2.4,4.9,5.1,4.5
		c2.5-0.4,4.1-2.3,3.8-5c-0.3-2.8-2.3-4.4-5.1-4C325.2,353.3,323.8,355.1,324,357.4z"/>
	<path fill="#F0EEEA" d="M340.4,347.4c-6-0.8-11.9-1.6-17.9-2.3c-1-5-2.3-9.9-6.9-13c4.1-0.4,8.1-0.2,12.2,0.1
		C332.7,336.6,338,340.8,340.4,347.4z"/>
	<path fill="#FEFEFE" d="M258.4,326.6c4.6,4.3,8.8,3.7,13.1,0.8c2.9-2,4,0.4,4.8,2.2c1,2.1-0.1,3.8-2.3,4.2c-4.5,1-8.9,0.5-13.1-1.4
		C258.7,331.5,258.6,329.5,258.4,326.6z"/>
	<path fill="#F37034" d="M286.1,341.2c2.5,1,3.9,1.8,5.5,2.2c1.2,0.3,2.7-0.1,3,1.9c0.3,1.7,0.1,3.3-1.3,4.4c-0.9,0.7-2,1.3-3.1,1.8
		c-1.8,0.9-4.6,2.2-5.4,0.7c-1-1.9,1.9-2.5,3.5-3.2c1.3-0.5,1.4-1.3,0.7-2.5C288.1,345,287.4,343.5,286.1,341.2z"/>
	<path fill="#313948" d="M324,357.4c-0.3-2.3,1.1-4.1,3.7-4.5c2.8-0.4,4.8,1.1,5.1,4c0.3,2.7-1.2,4.6-3.8,5
		C326.4,362.3,324.5,360.9,324,357.4z"/>
	<path fill="#4F5767" d="M541.5,296.6l-0.3-0.5c0,0-1.7,0.8-4.9,2c-1.9,0.7-3.8,1.4-5.5,2.2c-21.8,8.3-74.1,25.7-122.9,24
		c-4.5-0.7-9.1-0.9-13.8-1.1c-18.9-0.6-37.4,1.4-55.7,5.8c-3.6,0.9-7.6,0.8-10.8,3.1c4.9,4.5,10.2,8.7,12.6,15.3
		c3.3,7,1,13.2-2.9,19.1c15.3,2.6,30.6,3.7,46.1,3c2.9-0.1,5.7-0.4,8.5-0.7c17.4-1.7,57.7-6.9,86.7-19.9
		c20.6-9.2,38.4-21.7,50.4-31.3l0,0c0,0,21.9-9.2,56-8.9l6.5-16.7C576.9,291.8,557.1,292.5,541.5,296.6z"/>
	<path fill="#3E4B59" d="M591.5,335.1l-14.4-5.3l15.1-38.1c0,0-20.4-2.9-30.8,1.3c-10.3,4.2-1.3,19.7-1.3,19.7l10.4,23.9
		c-9.9,2.3-15.7,6-15.7,6L576.4,577l13.6-3.5c0,0,0,0-5-24.4c-4.7-23.1,2-194.8,2.7-212.7L591.5,335.1z"/>
	<path fill="#3E4B59" d="M649.5,334.9l14-6.2l-17.7-36.9c0,0,20.2-4.2,30.8-0.8c10.6,3.5,2.7,19.6,2.7,19.6l-8.8,24.6
		c10.1,1.6,16.1,4.9,16.1,4.9l-5.7,235.4l-13.8-2.6c0,0,0,0,3.3-24.6c3.1-23.4-15.2-194.2-17.1-212L649.5,334.9z"/>
	<path fill="#313948" d="M693,290.4c68.3,35.4,148.5,17,148.5,17s16.9,26.6,11.8,45.4c0.7,0,1.3,0,2,0c15.5-0.3,30.7-2.5,45.8-6.1
		c4.4,3.8,9.1,6.8,15.3,6.3c0,2.5-2.2,3.3-3.7,4.4c-9.3,7-20,10.4-31.2,12.6c-20.4,4.1-40.8,3-61.3,1.1
		c-61.3,1.1-132.3-17-137.5-33.4"/>
	<path fill="#CECFD3" d="M916.4,353.1c-6.2,0.5-10.9-2.5-15.3-6.3c-4.4-5.6-7.1-11.6-4.2-18.8c5.9-1.2,11.8-2.4,17.7-3.6
		c1.9,4,3.9,8,5.7,12c2.3,5.1,4.4,10.2,9.6,13.1C925.6,351.2,921.2,353,916.4,353.1z M909.9,332.7c-2.9-0.2-4.7,1.4-4.9,4.3
		c-0.1,2.7,1.5,4.5,4.1,4.7c2.8,0.2,4.6-1.3,4.8-4.8C914,334.5,912.5,332.9,909.9,332.7z"/>
	<path fill="#F0EEEA" d="M896.9,327.9c5.9-1.2,11.8-2.4,17.7-3.6c0.6-5.1,1.6-10,6-13.4c-4.1-0.2-8.1,0.3-12.1,0.9
		C903.9,316.7,898.9,321.2,896.9,327.9z"/>
	<path fill="#313948" d="M913.9,336.9c0.1-2.4-1.4-4-4-4.2c-2.9-0.2-4.7,1.4-4.9,4.3c-0.1,2.7,1.5,4.5,4.1,4.7
		C911.9,341.9,913.7,340.3,913.9,336.9z"/>
	<path fill="#4F5767" d="M703.7,293.9c22.3,6.8,75.7,20.7,124.2,15.6c4.5-1,9-1.5,13.7-2c18.8-1.9,37.4-1.1,55.9,2
		c3.6,0.6,7.6,0.3,11,2.4c-4.6,4.8-9.6,9.4-11.5,16.1c-2.9,7.2-0.1,13.2,4.2,18.8c-15.1,3.6-30.3,5.8-45.8,6.1
		c-2.9,0.1-5.7,0-8.5-0.2c-17.4-0.6-58-3-87.9-14c-21.2-7.8-39.8-19.1-52.4-27.8"/>
	<path fill="#303847" d="M683.6,594.2c1.7,15.4,15.8,28.6,31.3,29.1c-0.7-2.9-3.7-4.5-6.3-6.1c-9.5-5.7-17.1-14.3-21.5-24.5
		c-1.9,1-3.8,2-5.7,3"/>
	<path fill="#303847" d="M522.7,625.2c7.2-4,14.5-8.1,20.6-13.7s10.8-13.1,11.5-21.4c-2.7,0-5.3,0-8,0
		c-3.7,13.3-13.8,24.8-26.5,30.2c2.4,1,4.8,2,7.2,3"/>
	<path fill="#303847" d="M641.7,727.6c-1.1-49.3-8.3-80.3-8.3-80.3c2.6-1.6,6.5-10.3,7.6-10.5c-15.7,4.3-32.1,5.8-48.2,4.4
		c4.8,6.1,12.9,8.9,20.6,9.1l13.8,254.5l33.6-2C660.7,902.8,642.8,776.9,641.7,727.6z"/>
	<path fill="#BEBEBF" d="M620.3,553.2c2.9,2.8,6.7,5.8,10.5,4.5c3.4-1.2,4.9-5.2,5.2-8.8c-0.5-1.3-2.1-2-3.4-1.5
		c1.8,2.8-1.5,6.4-4.8,6.7s-6.5-1.2-9.8-1.3"/>
	<path fill="#FEE188" d="M558.9,215.5l-19.1-5.1c0,0-1.3-26.4,6.7-37.5c0,0-8.4,6.6-4.3-11.1c4.1-17.6,8.8-28.2,8.8-28.2
		s17.5-8.2,34.5-8.2c0,0-5.1-11.8,8.6-16.5c13.8-4.7,36.4-15.3,53.8-4.7s30,9.4,40.1,23.6c10.1,14.1,2.1,20.8,25.2,29.8
		c23.2,9,30,8.2,30,8.2s-41,16.9-47.9,17.7c0,0,6.2,21.4,6.2,23.9s-2.3,4.4-2.3,4.4l-21.9,2.3L558.9,215.5z"/>
	<path fill="#F8974F" d="M572.2,173.7c5.1,3.1,10.8,5.2,16.3,7.5c5.6,2.3,11.1,4.9,17.1,5.9c3.4,0.6,6.9,1.1,10.4,1.4
		c8.1,0.8,16.3,0.8,24.4,0.5c5.2-0.2,10.5-1.3,15.6-2.5c3.7-0.9,11-2.4,14.8-3.1c2.2,4.4-1.2,10.2-0.8,14.8c0.9,10,1,20.1,0.6,30.2
		c-0.3,7.9-4,15-6.7,22.3c-2.1,5.7-3.6,11.6-1.7,17.8c0.8,2.5,0.8,5.3,0.8,7.9c-0.1,5.3,0.9,10.6-1.6,15.7c-3.5,2.8-7.8,4.1-12,5.5
		c-2.9,0.9-4,3.5-5.9,5.4l0,0c-0.2-1.2,0.3-2.4,0.7-3.5c0.3-0.8,0.4-1.6-0.5-2c-1-0.4-1.5,0.2-1.9,1c-1,2.2-2.5,4.2-4,6.1
		c-4.2,5.3-9.8,7.6-16.8,7.4c-4.1-0.1-8.1-0.6-12.1-0.7c-1.8-0.1-3.4-1.2-4.8-2.2c-4.6-3.2-8.8-6.7-12.8-10.6
		c-1.2-1.2-1.7-1.4-3.5-0.3c-1.7,1.1-0.9,1-0.3,2.6c0.1,0.2,0.1,0.3,0.1,0.5c-0.9,0.5-1.9,0.1-2.9,0.2c0-1.1-1.1-1-1.8-1.3
		c-6.7-2.9-10.6-7.6-12-14.6c-1.8-9,0-18-0.4-26.9c-0.3-5.5-1.9-10.7-2.9-16c-1.4-7.2-5.3-13.8-6.1-21.1c-0.6-4.9-0.9-9.9,3.5-13.9
		c1.2-1.1,1.6-2.7,1.8-4.5c0.6-6.2-1.8-11.7-4.8-17c-0.5-0.9-0.8-1.7-0.8-2.7c0.2-3.2,2.2-5.7,3.9-8.3
		C565.3,175.1,567.9,171.3,572.2,173.7z"/>
	<path fill="#FAAB71" d="M602.1,218.6c2.1-0.5,4.2-1,5.9-2.2c1.6-1.2,2.6-3.3,1.8-5c-1-2.2-4.1-2.8-6.8-3.2
		c-3.8-0.5-7.5-1.1-11.3-1.6c-6.3-0.9-23.5-2.9-18.7,6.8C577.3,222.1,593.8,220.3,602.1,218.6z"/>
	<path fill="#FAAB71" d="M657,218.6c1.8-1,4.2-1,5.9-2.2c1.6-1.2,2.6-3.3,1.8-5c-1-2.2-4.1-2.8-6.8-3.2c-3.8-0.5-7.5-1.1-11.3-1.6
		c-6.3-0.9-23.5-2.9-18.7,6.8C632.2,222.1,647.8,223.9,657,218.6z"/>
	<path fill="#F46F33" d="M554.4,232.9c0.1-6.1-0.7-12.1,0.2-18.1c1.3-8.4,3.3-16.6,5.1-24.8c0.5-2.2,0.1-4.6,1.7-6.6
		c0,1,0.3,1.8,0.8,2.7c3,5.3,5.4,10.7,4.8,17c-0.2,1.7-0.6,3.3-1.8,4.5c-4.4,3.9-4,9-3.5,13.9c0.9,7.3,4.7,13.9,6.1,21.1
		c1,5.3,2.7,10.5,2.9,16c0.4,9-1.4,17.9,0.4,26.9c1.4,7,5.3,11.7,12,14.6c0.7,0.3,1.7,0.2,1.8,1.3c-5.4-0.3-10.2-2.6-14.8-5
		C570.1,296.3,554.2,251.1,554.4,232.9z"/>
	<path fill="#F46F33" d="M604.6,202.1l1.4,11c0,0-13.7-4.4-18.5-5.2c-5.8-0.9-16.7,3.5-17.6,6.1c0,0-0.4-14.6,5.1-16.7
		C580.4,195.4,604.6,202.1,604.6,202.1z"/>
	<path fill="#FFE289" d="M607.3,197.4v11c0,0-13.2-6-19.8-6.1c-6.7-0.2-16.7,4.5-17.6,7.1c0,0,1-12.3,6.5-14.3
		C581.8,193,607.3,197.4,607.3,197.4z"/>
	<path fill="#F6C425" d="M607.3,199.8v11c0,0-13.2-6-19.8-6.1c-6.7-0.2-16.7,4.5-17.6,7.1c0,0,3.1-12.7,8.5-14.7
		C583.8,195,607.3,199.8,607.3,199.8z"/>
	<path fill="#F46F33" d="M630.4,202l-1.4,11c0,0,13.7-4.4,18.5-5.2c5.8-0.9,16.7,3.5,17.6,6.1c0,0,0.4-14.6-5.1-16.7
		C654.6,195.2,630.4,202,630.4,202z"/>
	<path fill="#FFE289" d="M627.6,197.2v11c0,0,13.2-6,19.8-6.1c6.7-0.2,16.7,4.5,17.6,7.1c0,0-1-12.3-6.5-14.3
		C653.2,192.8,627.6,197.2,627.6,197.2z"/>
	<path fill="#F6C425" d="M627.6,199.6v11c0,0,13.2-6,19.8-6.1c6.7-0.2,16.7,4.5,17.6,7.1c0,0-3.1-12.7-8.5-14.7
		C651.1,194.8,627.6,199.6,627.6,199.6z"/>
	<path fill="#F46F33" d="M643.6,302.9c-3.1-1.9,16.2-10.5,17.6-17.5c1.8-9,0-18,0.4-26.9c0.3-5.5,1.9-10.7,2.9-16
		c1.4-7.2,5.3-13.8,6.1-21.1c0.6-4.9,0.9-9.9-3.5-13.9c-1.2-1.1-1.6-2.7-1.8-4.5c-0.6-6.2,1.8-11.7,4.8-17c0.5-0.9,0.8-1.7,0.8-2.7
		c1.7,1.9,1.2,4.3,1.7,6.6c1.8,8.3,3.8,16.5,5.1,24.8c0.9,6.1,0.1,12,0.2,18.1c0.2,18.1-12.7,60.2-15.6,63.3
		S643.6,302.9,643.6,302.9"/>
	<path fill="#F46F33" d="M631.2,219.7l7.7-1.5c-2,0-3.6-0.3-5-0.7l5.5-4.4l-4.8-1.9l-4.7,1.6l0.4-3.1l-2.7,1c0.8-0.3,0,0,0,0v-13.4
		c0,0-6.6,4-7.4,5.2c-0.8,1.2-3.2-0.4-3.2-0.4l0,0l0,0l0,0c0,0-2.4,1.6-3.2,0.4c-0.8-1.2-6.6-5.1-6.6-5.1v13.3l-1.8-0.7l0.4,3.1
		l-4.7-1.6l-4.8,1.9l5.6,3.3c-1.7,0.9-3.9,1.5-6.9,1.5l7.7,1.5c0,0,6.6,0.4,6,4.3s-3.4,8.2-3.4,8.2l-8,0.9v8.4c0,0,19.5,3.5,19.5,7
		l0,0l0,0l0,0c0-3.4,19.5-7,19.5-7v-8.4l-8-0.9c0,0-2.8-4.3-3.4-8.2S631.2,219.7,631.2,219.7z M617.1,240.5l-5.1-0.9l1.6-32.3h3.4
		l0,0h3.4l1.6,32.3L617.1,240.5z"/>
	<path fill="#E14B5E" d="M605.5,259.4c6-2.4,11.2-4,16.7-5.1s7-1.5,9.1,1.6c2.8,7.8,6.3,15.6-1.7,22.8c-2.4,2.2-5,4.2-8.5,5.2
		c-1.1,0.1-2.2,0.2-3.3,0.3c-10.9,0.6-19.5-2.5-18.9-12.7c0.2-2.5-0.5-4.8-2.6-6.7c-0.9-1-1.7-1.9-2.6-2.9
		C599.7,259.5,605.5,259.4,605.5,259.4z M625.2,268.3c0.4-2.2,0.3-4.4-0.3-6.6c-1.1-4.1-6.2-6.1-10.2-3.6s-8,4.9-13.3,5.8
		c1.5,1.7,2.7,3.1,3.9,4.4c2.2,4.9,4.8,6.2,11.2,5.7C622.4,273.7,624.1,272.6,625.2,268.3z"/>
	<path fill="#303847" d="M605.3,268.4c-1.2-1.4-2.4-2.7-3.9-4.4c5.3-0.9,9.2-3.3,13.3-5.8c4-2.5,9.1-0.5,10.2,3.6
		c0.6,2.2,0.7,4.3,0.3,6.6C618.6,268.4,611.9,268.4,605.3,268.4z"/>
	<path fill="#FEFEFE" d="M605.3,268.4c6.6,0,13.3,0,19.9-0.1c-1.2,4.3-2.8,5.4-8.7,5.8C610.1,274.6,607.5,273.3,605.3,268.4z"/>
	<path fill="#FAAB71" d="M626.8,296.6c7.9-2.5,8.8-10-0.5-10.4c-5.7-0.2-12.7,0.3-18.1,1.9c-3.9,1.2-7.5,3-4.2,6.6
		C608.2,299.1,621.3,298.3,626.8,296.6z"/>
	<path fill="#FEFEFE" d="M586.5,217.2c3.9-0.1,7.7-1.2,11.1-2.9c-0.6-1.8-2.5-3.1-4.5-3.8s-4.2-0.7-6.4-0.8c-3-0.1-10-0.6-10.2,3.1
		C576.4,216.4,583.7,217.3,586.5,217.2z"/>
	<path fill="#FEFEFE" d="M649.4,217.2c-3.9-0.1-7.7-1.2-11.1-2.9c0.6-1.8,2.5-3.1,4.5-3.8s4.2-0.7,6.4-0.8c3-0.1,10-0.6,10.2,3.1
		C659.5,216.4,652.2,217.3,649.4,217.2z"/>
	<path fill="#303847" d="M592.4,213.5c0-1.3-0.7-2.5-1.7-3.4c-1.3-0.2-2.7-0.3-4-0.3c-0.7,0-1.7-0.1-2.7-0.1
		c-1.4,0.8-2.3,2.2-2.3,3.8c0,1.5,0.8,2.7,2,3.6c1.1,0.1,2,0.2,2.7,0.2c1.5,0,2.9-0.2,4.4-0.5C591.8,215.9,592.4,214.7,592.4,213.5z
		"/>
	<path fill="#303847" d="M649.2,209.8c-1.1,0-2.2,0.1-3.3,0.2c-0.4,0.8-0.7,1.8-0.7,2.9c0,1.6,0.6,3.1,1.6,4.1
		c0.9,0.1,1.8,0.2,2.7,0.2c1,0,2.5-0.1,4.1-0.4c0.9-1,1.4-2.4,1.4-4c0-1.1-0.3-2.2-0.8-3.1C652.3,209.6,650.4,209.7,649.2,209.8z"/>
	<path fill="#F46F33" d="M570.1,296.3c0,0,9.1,9.2,17.4,10.1c8.4,0.9,2.2,3.7,11.6,5.4c9.4,1.7,8.4,8.4,16.2,8.2
		c7.8-0.2,11.2,0.7,19.8-8.2c8.6-8.9,12.3-5.4,12.3-5.4s10.6-3.8,15-8c5.8-5.6,4.5-13.3,4.5-13.3L646.6,296L570.1,296.3z"/>
	<path fill="#F5C326" d="M554.6,214.8c0,0-5.1-42.4,0-50.1c5.1-7.7,17.7,0.2,14.9-7.2s-1-15.9-8.4-15.9c0,0,14.9-10.3,23.4,0
		s19.5,29.2,37.6,31.3c0,0,1.5-8.9-3.6-15.4s14.9,1.2,20.8,8s25.7,7.3,25.7,7.3s51.8,1.5,78.2-7.2c0,0-32.5,16.6-47.9,17.7
		c-15.3,1-18,30.7-18,30.7l-7-30.6c0,0-32.9,9.7-51.9,9.2s-41.2-21-49-16.7S555,205,554.6,214.8z"/>
	<path fill="#F8974F" d="M690.3,236.4c2.7-5,1.6-10.5,0.4-15.7c-0.8-3.5-2.6-7.8-8.3-8.8c-4.5-0.8-9.4,1.1-11.6,3.5
		s-2.5,5.4-2.7,8.2c-0.3,4.7-4.7,17.2,3.2,20.4C679.3,247.3,688.1,240.4,690.3,236.4z"/>
	<path fill="#F8974F" d="M545.3,236.4c-1.9-5-1.1-10.5-0.3-15.7c0.6-3.5,1.8-7.8,5.8-8.8c3.1-0.8,9.2,1.1,10.8,3.5
		s3.2,14.8,3.3,17.6c0.2,4.7-1,7.8-6.4,11C552.9,247.3,546.9,240.4,545.3,236.4z"/>
	<path fill="#F46F33" d="M552,234.7c-3.7-4.8-0.9-12.2,5.2-14.2c-3.8,3.1-3.4,9.2,0.8,12c-0.6,1.7-2.1,3.4-4.2,3.7
		c-2.1,0.3-4.5-1.3-4-3.1"/>
	<path fill="#F46F33" d="M684.4,231.4c-2.9,1.4-3.8,4.7-6.6,6.2c2.6-3.9,3.2-8.7,1.9-13.1c-0.4-1.3-0.9-2.7,0.3-3.7
		c1.1-0.8,2.7-0.6,3.7,0.2c1.8,1.6,1.4,3.7,1,5.7C684.7,226.7,686.4,230.4,684.4,231.4z"/>
</g>
<g id="skeleton_1_">
	<polygon fill="none" stroke="#000000" stroke-miterlimit="10" points="512.5,346.8 562.8,562.6 679.2,561.8 725.4,346.8 	"/>
	<polyline fill="none" stroke="#000000" stroke-miterlimit="10" points="511.5,346.8 408.8,346.8 245.5,353.1 	"/>
	<polyline fill="none" stroke="#000000" stroke-miterlimit="10" points="726.9,346.4 830.1,346.4 993.4,352.8 	"/>
	<polyline fill="none" stroke="#000000" stroke-miterlimit="10" points="562.8,562.6 569.2,722.8 569.2,930.8 	"/>
	<polyline fill="none" stroke="#000000" stroke-miterlimit="10" points="679.2,561.8 679.2,722.8 679.2,930.8 	"/>
	<polyline fill="none" stroke="#000000" stroke-miterlimit="10" points="618.2,167.3 598.4,169.8 585.9,179.3 577.3,193.4 
		574.8,202.7 574,214.4 574,223.9 574.8,245.6 581.6,265.6 593.2,278.1 603.2,284.8 618.2,288 633,285.2 643,278.5 654.6,265.9 
		661.4,245.9 662.2,224.3 662.2,214.7 661.4,203 658.9,193.8 650.7,179.3 638.1,169.8 618.2,167.3 	"/>
	<polyline fill="none" stroke="#000000" stroke-miterlimit="10" points="582.2,204.2 586.2,200.5 592.4,199.5 599.7,199.5 
		609.5,203.5 	"/>
	<polygon fill="none" stroke="#000000" stroke-miterlimit="10" points="588.4,212.4 593.6,208.7 599.9,208.7 605.1,212.9 
		599.9,213.9 593.6,214.7 	"/>
	<polyline fill="none" stroke="#000000" stroke-miterlimit="10" points="606.7,230.5 611.9,230.5 617.4,231.3 617.4,226 
		617.4,218.9 617.4,213.4 617.4,207.6 	"/>
	<polyline fill="none" stroke="#000000" stroke-miterlimit="10" points="653.7,203.8 649.7,200.9 643.4,199.4 636.1,199.8 
		626.1,203 	"/>
	<polygon fill="none" stroke="#000000" stroke-miterlimit="10" points="647.8,212.4 642.5,208.7 636.2,208.7 631.1,212.9 
		636.2,213.9 642.5,214.7 	"/>
	<polyline fill="none" stroke="#000000" stroke-miterlimit="10" points="627.8,230.5 622.8,230.5 617.4,231.3 	"/>
	<polygon fill="none" stroke="#000000" stroke-miterlimit="10" points="600.7,252.6 607.6,249.2 614.1,248.1 618.2,249 622.4,248.1 
		628.8,249.2 635.7,252.6 629.3,258.9 622.2,261.7 618.2,262.2 614.1,261.7 607.1,258.9 	"/>
	<polyline fill="none" stroke="#000000" stroke-miterlimit="10" points="600.7,252.6 604.3,252.9 614.3,252.1 618.2,252.6 
		622.2,252.1 632.1,252.9 635.7,252.6 	"/>
	<polyline fill="none" stroke="#000000" stroke-miterlimit="10" points="600.7,252.6 604.3,252.9 614.3,255 618.2,255.8 622.2,255 
		632.1,252.9 635.7,252.6 	"/>
	<circle id="rightShoulder_1_" cx="512.6" cy="346.5" r="8.2"/>
	<circle id="rightElbow_1_" cx="409.1" cy="346.6" r="8.2"/>
	<circle id="rightWrist_1_" cx="245.7" cy="353" r="8.2"/>
	<circle id="rightHip_1_" cx="562.9" cy="562.3" r="8.2"/>
	<circle id="rightKnee_1_" cx="569.3" cy="722.5" r="8.2"/>
	<circle id="rightAnkle_1_" cx="569.3" cy="930.5" r="8.2"/>
	<circle id="leftElbow_1_" cx="829.9" cy="346.2" r="8.2"/>
	<circle id="leftWrist_1_" cx="993.3" cy="352.5" r="8.2"/>
	<circle id="leftHip_1_" cx="679.3" cy="561.5" r="8.2"/>
	<circle id="leftKnee_1_" cx="679.3" cy="722.5" r="8.2"/>
	<circle id="leftAnkle_1_" cx="679.3" cy="930.5" r="8.2"/>
	<circle id="rightEye0_1_" cx="588.4" cy="212.4" r="0.8"/>
	<circle id="rightBrow1_1_" cx="586.2" cy="200.5" r="0.8"/>
	<circle id="rightBrow4_1_" cx="609.5" cy="203.5" r="0.8"/>
	<circle id="nose1_1_" cx="617.4" cy="213.4" r="0.8"/>
	<circle id="rightBrow3_1_" cx="599.7" cy="199.5" r="0.8"/>
	<circle id="rightEye1_1_" cx="593.6" cy="208.7" r="0.8"/>
	<circle id="rightBrow0_1_" cx="582.2" cy="204.2" r="0.8"/>
	<circle id="rightBrow2_1_" cx="592.4" cy="199.5" r="0.8"/>
	<circle id="rightEye5_1_" cx="593.6" cy="214.7" r="0.8"/>
	<circle id="rightEye2_1_" cx="599.9" cy="208.7" r="0.8"/>
	<circle id="rightEye3_1_" cx="605.1" cy="212.9" r="0.8"/>
	<circle id="nose0_1_" cx="617.4" cy="207.6" r="0.8"/>
	<circle id="nose3_1_" cx="617.4" cy="226" r="0.8"/>
	<circle id="rightNose0_1_" cx="606.7" cy="230.5" r="0.8"/>
	<circle id="rightMouthCorner_1_" cx="600.7" cy="252.6" r="0.8"/>
	<circle id="rightNose1_1_" cx="611.9" cy="230.5" r="0.8"/>
	<circle id="rightUpperLipTop0_1_" cx="607.6" cy="249.2" r="0.8"/>
	<circle id="nose2_1_" cx="617.4" cy="218.9" r="0.8"/>
	<circle id="nose4_1_" cx="617.4" cy="231.3" r="0.8"/>
	<circle id="upperLipTopMid_1_" cx="618.2" cy="249" r="0.8"/>
	<circle id="rightUpperLipTop1_1_" cx="614.1" cy="248.1" r="0.8"/>
	<path id="rightMiddleLip_1_" d="M604.3,252.1c0.4,0,0.8,0.4,0.8,0.8c0,0.4-0.4,0.8-0.8,0.8s-0.8-0.4-0.8-0.8
		S603.9,252.1,604.3,252.1z"/>
	<circle id="lowerLipBottomMid_1_" cx="618.2" cy="262.2" r="0.8"/>
	<circle id="upperLipBottomMid_1_" cx="618.2" cy="252.6" r="0.8"/>
	<circle id="lowerLipTopMid_1_" cx="618.2" cy="255.7" r="0.8"/>
	<circle id="rightUpperLipBottom1_1_" cx="614.3" cy="252.1" r="0.8"/>
	<circle id="rightLowerLipTop0_1_" cx="614.3" cy="255" r="0.8"/>
	<circle id="rightLowerLipBottom1_1_" cx="614.1" cy="261.7" r="0.8"/>
	<circle id="rightLowerLipBottom0_1_" cx="607.1" cy="258.9" r="0.8"/>
	<circle id="rightEye4_1_" cx="599.9" cy="213.9" r="0.8"/>
	<circle id="jawMid_1_" cx="618.2" cy="288" r="0.8"/>
	<circle id="rightJaw7_1_" cx="603.2" cy="284.8" r="0.8"/>
	<circle id="rightJaw6_1_" cx="593.2" cy="278.1" r="0.8"/>
	<circle id="rightJaw5_1_" cx="581.6" cy="265.6" r="0.8"/>
	<circle id="rightJaw4_1_" cx="574.8" cy="245.6" r="0.8"/>
	<circle id="rightJaw3_1_" cx="574" cy="223.9" r="0.8"/>
	<circle id="rightJaw2_1_" cx="574" cy="214.4" r="0.8"/>
	<circle id="rightJaw1_1_" cx="574.8" cy="202.7" r="0.8"/>
	<circle id="rightJaw0_1_" cx="577.3" cy="193.4" r="0.8"/>
	<circle id="topMid_1_" cx="618.4" cy="167.3" r="0.8"/>
	<circle id="leftTop0_1_" cx="638.1" cy="169.8" r="0.8"/>
	<circle id="leftTop1_1_" cx="650.7" cy="179.3" r="0.8"/>
	<circle id="leftEye0_1_" cx="648" cy="212.4" r="0.8"/>
	<circle id="leftBrow1_1_" cx="649.9" cy="200.9" r="0.8"/>
	<circle id="leftBrow4_1_" cx="626.3" cy="203" r="0.8"/>
	<circle id="leftBrow3_1_" cx="636.3" cy="199.8" r="0.8"/>
	<circle id="leftEye1_1_" cx="642.8" cy="208.7" r="0.8"/>
	<circle id="leftBrow0_1_" cx="653.9" cy="203.8" r="0.8"/>
	<circle id="leftBrow2_1_" cx="643.6" cy="199.4" r="0.8"/>
	<circle id="leftEye5_1_" cx="642.8" cy="214.7" r="0.8"/>
	<circle id="leftEye2_1_" cx="636.5" cy="208.7" r="0.8"/>
	<circle id="leftEye3_1_" cx="631.3" cy="212.9" r="0.8"/>
	<circle id="leftNose0_1_" cx="627.8" cy="230.5" r="0.8"/>
	<circle id="leftMouthCorner_1_" cx="635.7" cy="252.6" r="0.8"/>
	<circle id="leftNose1_1_" cx="623" cy="230.5" r="0.8"/>
	<circle id="leftUpperLipTop0_1_" cx="628.8" cy="249.2" r="0.8"/>
	<circle id="leftUpperLipTop1_1_" cx="622.4" cy="248.1" r="0.8"/>
	<path id="leftMiddleLip_1_" d="M632.1,252.1c0.4,0,0.8,0.4,0.8,0.8c0,0.4-0.4,0.8-0.8,0.8s-0.8-0.4-0.8-0.8
		S631.7,252.1,632.1,252.1z"/>
	<circle id="leftUpperLipBottom1_1_" cx="622.2" cy="252.1" r="0.8"/>
	<circle id="leftLowerLipTop0_1_" cx="622.2" cy="255" r="0.8"/>
	<circle id="leftLowerLipBottom1_1_" cx="622.4" cy="261.7" r="0.8"/>
	<circle id="leftLowerLipBottom0_1_" cx="629.3" cy="258.9" r="0.8"/>
	<circle id="leftEye4_1_" cx="636.5" cy="213.9" r="0.8"/>
	<circle id="leftJaw7_1_" cx="633" cy="285.2" r="0.8"/>
	<circle id="leftJaw6_1_" cx="643" cy="278.5" r="0.8"/>
	<circle id="leftJaw5_1_" cx="654.6" cy="265.9" r="0.8"/>
	<circle id="leftJaw4_1_" cx="661.4" cy="245.9" r="0.8"/>
	<circle id="leftJaw3_1_" cx="662.2" cy="224.3" r="0.8"/>
	<circle id="leftJaw2_1_" cx="662.2" cy="214.7" r="0.8"/>
	<circle id="leftJaw1_1_" cx="661.4" cy="203" r="0.8"/>
	<circle id="leftJaw0_1_" cx="658.9" cy="193.8" r="0.8"/>
	<circle id="rightTop0_1_" cx="598.5" cy="169.8" r="0.8"/>
	<circle id="rightTop1_1_" cx="585.9" cy="179.3" r="0.8"/>
	<circle id="leftShoulder_1_" cx="725.5" cy="346.5" r="8.2"/>
</g>
</svg>
